<?xml version="1.0" encoding="UTF-8"?>
<svg xmlns="http://www.w3.org/2000/svg" viewBox="0 0 311.48 223.56">
  <defs>
    <style>
      .cls-1 {
        mix-blend-mode: multiply;
      }

      .cls-1, .cls-2, .cls-3 {
        fill: #d79428;
      }

      .cls-4, .cls-5 {
        mix-blend-mode: darken;
      }

      .cls-4, .cls-6, .cls-7 {
        fill: none;
      }

      .cls-5, .cls-8, .cls-9, .cls-10 {
        fill: #e1bdff;
      }

      .cls-5, .cls-8, .cls-6 {
        stroke: #a28cbc;
        stroke-linecap: round;
        stroke-miterlimit: 10;
      }

      .cls-2 {
        mix-blend-mode: screen;
      }

      .cls-11 {
        fill: #f6f1fc;
      }

      .cls-9 {
        font-family: MyriadPro-Regular, 'Myriad Pro';
        font-size: 12px;
      }

      .cls-12 {
        fill: #f1e1d2;
      }

      .cls-7 {
        isolation: isolate;
      }

      .cls-13 {
        fill: #451d16;
      }
    </style>
  </defs>
  <g class="cls-7">
    <g id="Layer_1" data-name="Layer 1">
      <path class="cls-5" d="m307.33,138.3c4.54-13.33,2.41-33.47-1.87-47.88-4.98-16.76-13.37-27.39-17.59-32.64-4.92-6.11-17.97-20.88-50.95-33.38-31.61-11.98-54.99-11.82-92.34-11.55-22.66.16-39.01,2.24-54.81,14.15-.75.57-1.55,1.17-2.38,1.82-3.38,2.64-7.37,6.15-11.22,11.54-20.02,28-18.6,82.28,2.54,104.12,11.72,12.11,26.93,11.58,35.76,11.32,129.58-3.7,181.26,16.57,192.85-17.5Z"/>
      <path class="cls-10" d="m301.46,160.26c0,14.6-71.62,38.62-115.54,38.62s-79.53-19.9-79.53-34.5,35.61-18.35,79.53-18.35,115.54-.36,115.54,14.24Z"/>
      <path class="cls-5" d="m305.28,114.83c14.17,33.52,1.22,79.8-30.99,97.2-18.33,9.9-38,11.65-58.43,10.88-21.82-.82-43.73-3.94-64.34-11.36-10.44-3.76-20.59-8.62-31.51-10.56-14.31-2.53-28.83.14-42.78,3.43-12.81,3.02-27.7,2.48-40.65,0-10.28-1.96-20.34-6.05-28.14-13.03-4.19-3.75-8.97-9.39-7.75-15.39.87-4.26,3.82-8.03,6.62-11.22,8.33-9.47,19.17-16.94,29.91-23.4,4.83-2.91,9.79-5.62,14.9-8.01,12.42-5.8,25.84-12.02,39.33-12.85,20.16-1.24,45.09-5.7,59.96-1.46,12.67,3.61,23.72,8.66,35.3,14.69,12.74,6.63,26.85,10.63,41.18,11.6,9.59.65,20.08-.35,27.23-6.78,5.4-4.85,8.1-12.53,6.94-19.7"/>
      <path class="cls-11" d="m108.53,115.59c-18.19-.21-22.91,1.96-46.56,13.5-8.6,4.2-29.04,14.4-38.21,21.52-4.85,3.76-9.66,7.63-13.93,12.05-3.54,3.67-7.79,8.27-8.67,13.47-.35,2.07-.18,4.24.67,6.18.48,1.1,1.15,2.11,1.86,3.08,6.72,9.13,16.91,14.21,27.6,17.17,12.25,3.39,25.6,4.62,38.2,2.73,12.21-1.83,24.17-5.37,36.55-6.03,4.67-.25,9.58-.14,13.69-2.35-2.48-1.21-5.19-1.47-7.88-1.85-.48-.07-5.22-.38-5.3-.92-.1-.62,13.65-.59,13.49-3.49-.17-3.16-14.75-.78-14.75-2.4,0-1.73,19.48-2.23,19.65-5.45.16-3.19-19.84-4.2-19.65-6.55.19-2.36,19.21-3.41,19.65-6.98.45-3.66-20.07-2.85-19.65-6.11.45-3.42,19.13-2.71,19.54-5.87.42-3.25-18.61-7.2-18.29-9.19.33-2.07,23.78,2.76,24.29-.06.52-2.88-24.32-9.78-23.78-12.77.49-2.7,21.18-1.1,21.52-3.22.34-2.16-21.13-5.35-20.7-8.72.4-3.15,23.09-.99,23.18-2.32.08-1.23-15.32-.45-15.25-1.72.07-1.17,14.29.24,14.32-.41.02-.52-6.46-3.1-21.6-3.27Z"/>
      <g class="cls-4">
        <path class="cls-8" d="m30.02,73.79s0,.02.02.02c-.08.11-.08.09-.02-.02Z"/>
        <path class="cls-8" d="m161.48,109.56c-.03.11-.06.21-.09.32-.15.52-.51,1.06-1.05,1.15-1.41.24-4.57-2.99-5.56-3.83-1.93-1.64-3.94-3.53-4.96-5.9,1.34,3.08,1.82,6.41,1.76,9.75-.04,2.38.11,14.33-4.28,11.42-7.53-4.99-15.18-7.5-23.88-3.69-.09.04-.17.07-.25.1-4.19,1.88-7.71,18.58-9.76,22.58s-2.89,8.74-5.58,12.34c-1.32,1.77-3.19,3.08-5.25,3.86-2.25.85-4.76,1.08-7.09.49-5.12-1.31-7.59-5.67-10.29-9.65-3.11-4.58-12.38-19.35-17.48-19.71-6-.43-12.3,1.4-16.72,5.87-7.53,7.62-6.07,10.35-9.43,3.77-2.11-4.14-3.82-8.56-4.44-13.25-.14-1.01.34-2.8.33-4.2-.89,2.25-1.46,4.51-2.63,6.67-1.15,2.13-2.51,4.12-3.86,6.1-.17.25-.35.5-.61.61-.64.26-1.22-.49-1.54-1.15-4.97-10.2-6.3-22.71-5.64-34.09.54-9.23,2.86-18.41,7.41-26.24-.27.42-.48.77-.57.93-2.29-1.81-4.01-3.57-5.39-5.22-1.37-1.65-2.38-3.18-3.18-4.48-6.04-9.79-6.19-19.6-6.32-27.39-.11-6.93-.12-10.44,1.98-12.52,4.37-4.33,13.74-.04,20.04,2.84,5.32,2.44,13.17,6.92,21.31,15.43,1.35-1.24,3.83-3.36,7.4-5.5,3.56-2.14,8.21-4.3,13.9-5.62,13.3-3.08,23.56.29,26.73,1.5l.06-.1c5.24-10.89,11.38-17.87,15.72-22.04,5.13-4.92,12.76-12.24,18.16-9.65,2.59,1.23,3.6,4.56,5.51,11.17,2.15,7.43,4.86,16.79,1.98,28.17-.77,3.02-2.3,7.65-5.57,12.68,7.02,5.82,11.05,13.14,14.42,22.18,2.13,5.7,3.71,11.62,4.53,17.64.42,3.04.64,6.11.62,9.18-.02,2.5.19,5.05-.45,7.49Z"/>
      </g>
      <path class="cls-11" d="m161.36,109.51c-.05.71-.44,1.03-.74,1.16-.2.08-1.51-.44-1.77-.6-1.84-1.15-1.77-1.53-3.44-2.9-1.36-1.12-2.32-2.28-3.52-3.48-.18-.18-1.98-2.35-2.2-2.58.47,1.04.96,3.98,1.26,5.98.61,4.17.46,8.04-.49,12.23-1.35,5.95-1.27,3.03-11.17-1.31-4.1-1.8-10.22-2.55-15.79-.04-4.8,2.18-8.11,17.37-10.97,24.46-1.69,4.2-2.79,8.87-5.97,12.19-2.19,2.3-4.24,2.83-6.35,3.19-3.13.54-5.3.18-8.05-1.72-3.79-2.61-5.7-6.55-7.77-9.65-10.15-15.22-13.26-17.13-16.53-18-2.99-.8-11.96,1.11-15.79,4.5-7.59,6.72-6.95,12.11-9.9,5.65-1.77-3.89-3.55-7.21-4.17-11.37-.09-.61-.32-1.83-.33-2.78,0-.29-.29-3.31-.43-3.05-.76,1.56-1.44,4.06-3.09,6.33-1.3,1.79-1.8,3.17-3.19,4.91-.19.24-.77,1.32-.99,1.31-.31,0-.68.54-1.33-1.1-3.23-8.17-4.09-14.64-4.71-21.07-.01-.13-1.02-4.12.49-4.77,9.92-4.26,14.24,14.86,24.66,12.87,22.31-4.25,37.62,31.53,49.64,30.44,15.45-1.4,14.96-38.95,36.2-43.04,10.56-2.03,12.41-22.94,23.02-24.59,1.21-.19,1.69,3.72,1.72,3.85,1.73,5.83,2.28,14.69,1.69,23.01Z"/>
      <g>
        <path class="cls-13" d="m100.22,157.28c.67-.21,1.29-.71,1.86-1.39,1.05-1.25.89-1.7,1.83-2.72.8-.87,1.12-.77,1.3-1.27.42-1.17-.75-3.15-2.32-3.7-1.12-.39-1.16.22-4.51,1.07"/>
        <path class="cls-13" d="m100.22,157.28c-.7.07-1.84-.06-2.63-.46-1.46-.74-1.49-1.2-2.76-1.77-1.08-.48-1.33-.26-1.69-.65-.85-.91-.57-3.19.67-4.32.87-.8,1.15-.26,4.57-.81"/>
      </g>
      <path class="cls-10" d="m120.47,81.47c0,26.98-12.31,49.66-33.49,49.66s-43.21-22.69-43.21-49.66,21.65-50.48,42.83-50.48,33.87,23.51,33.87,50.48Z"/>
      <path class="cls-3" d="m125.56,77.28c2.23,4.39.71,9.75-7.62,14.2-6.54,3.5-16.94,4.53-18.8-.02-2.48-6.06,3.63-13.47,10.16-16.97,6.53-3.51,13.5-2.64,16.26,2.79Z"/>
      <path class="cls-3" d="m50.26,91.66c-.27.66,4.78,4.83,10.8,5.2,7.99.49,14.6-5.94,14.39-6.33-.12-.22-2.35,1.58-6.73,2.43-4.83.94-7.12,1.38-13.34-.47-3.53-1.05-4.98-1.14-5.11-.82Z"/>
      <path class="cls-6" d="m247.86,105.88c-1.08-3.32-5.55-15.74-19.09-23.44-2.82-1.61-12.65-7.21-24.8-5.55-22.45,3.06-31.97,28.09-33.61,32.39-1.59,4.18-2.87,10.09-3.43,15.17"/>
      <path class="cls-10" d="m146.82,19.92c.27,5.69-6.37,10.31-14.24,10.31s-15.44-5.22-15.44-10.91,7.57-9.71,15.44-9.71,13.58-3.66,14.24,10.31Z"/>
      <path class="cls-8" d="m49.08,47.26c-9.83.37-19.24-6.81-22.33-17.03"/>
      <path class="cls-8" d="m116.83,34.03c9.43-3.06,16.26-13.15,16.21-23.91"/>
      <text class="cls-9" transform="translate(179.75 197.77)"><tspan x="0" y="0">DCBFFF</tspan></text>
      <path class="cls-10" d="m309.86,138.09c-.25,10.62-4.74,19.23-10.59,19.23s-10.59-8.61-10.59-19.23,4.74-19.23,10.59-19.23,10.91,5.84,10.59,19.23Z"/>
      <path class="cls-1" d="m120.08,84.25c0,2.74-.79,5.26-2.09,7.22-.01.01-.03.01-.04.02-3.19,1.71-7.29,2.83-10.88,3-3.1-1.81-5.24-5.71-5.24-10.24,0-1.58.26-3.08.73-4.44,1.9-2.14,4.29-4,6.74-5.32,1.09-.58,2.18-1.05,3.27-1.38,4.27.94,7.51,5.57,7.51,11.14Z"/>
      <ellipse class="cls-2" cx="116.83" cy="76.1" rx="3.03" ry="2.02"/>
      <ellipse class="cls-12" cx="116.57" cy="76.1" rx="2.76" ry="2.02"/>
    </g>
  </g>
</svg>